<svg xmlns="http://www.w3.org/2000/svg" viewBox="0 0 150 24" fill="#1428A0">
  <path d="M14.5 3.5c-3.3 0-6.1 1.5-7.5 3.5v-3H2v16h5V11c0-2.5 2-4 4.5-4s4.5 1.5 4.5 4v9h5v-9c0-4.5-3.5-7.5-6.5-7.5zm22 0c-5.5 0-10 3.5-10 8s4.5 8 10 8 10-3.5 10-8-4.5-8-10-8zm0 12c-3 0-5-1.5-5-4s2-4 5-4 5 1.5 5 4-2 4-5 4zm26.5-12L57 15.5 51 3.5h-6v16h5V8l6 11.5h1L63 8v12h5v-16h-5zm15.5 0c-5.5 0-9 2.5-9 6 0 3 2.5 5 7 5.5l3 .5c2 .5 3 1 3 2s-1.5 2-4 2-5-1-5.5-3h-5c.5 4 4 6.5 10.5 6.5s9.5-2.5 9.5-6c0-3-2.5-5-7.5-5.5l-3-.5c-1.5-.5-2.5-1-2.5-2s1.5-2 4-2 4.5 1 5 2.5h5c-.5-3.5-4-5.5-10-5.5zm20 0c-5.5 0-9 2.5-9 6 0 3 2.5 5 7 5.5l3 .5c2 .5 3 1 3 2s-1.5 2-4 2-5-1-5.5-3h-5c.5 4 4 6.5 10.5 6.5s9.5-2.5 9.5-6c0-3-2.5-5-7.5-5.5l-3-.5c-1.5-.5-2.5-1-2.5-2s1.5-2 4-2 4.5 1 5 2.5h5c-.5-3.5-4-5.5-10-5.5zm29.5 0h-5v3.5c-1.5-2-4-3.5-7.5-3.5-5.5 0-10 3.5-10 8s4.5 8 10 8c3.5 0 6-1.5 7.5-3.5v3h5v-16zm-12.5 12c-3 0-5-1.5-5-4s2-4 5-4 5 1.5 5 4-2 4-5 4zm27.5-12c-3 0-5.5 1.5-7 3.5v-3h-5v16h5V11c0-2.5 2-4 4.5-4s4 1 4.5 3h5c-.5-4-4-6.5-7-6.5z"/>
</svg>
